<?xml version="1.0" encoding="utf-8"?>
<!-- Generator: Adobe Illustrator 16.0.0, SVG Export Plug-In . SVG Version: 6.00 Build 0)  -->
<!DOCTYPE svg PUBLIC "-//W3C//DTD SVG 1.1//EN" "http://www.w3.org/Graphics/SVG/1.1/DTD/svg11.dtd">
<svg version="1.1" id="Layer_1" xmlns="http://www.w3.org/2000/svg" xmlns:xlink="http://www.w3.org/1999/xlink" x="0px" y="0px"
	 viewBox="0 0 268 167.229" enable-background="new 0 0 268 167.229" xml:space="preserve" preserveAspectRatio="xMidYMid meet">
<g>
	<polygon points="130.171,49.245 130.171,57.802 104.442,57.802 104.442,14.916 113.014,14.916 113.014,49.245 	"/>
	<rect x="138.74" y="49.217" width="8.586" height="8.584"/>
	<rect x="121.587" y="32.067" width="8.584" height="8.585"/>
	<rect x="121.587" y="14.916" width="8.584" height="8.584"/>
	<rect x="138.74" y="14.916" width="8.586" height="8.584"/>
	<rect x="138.74" y="32.067" width="8.586" height="8.584"/>
	<g>
		<path d="M17.372,123.357V74.696h5.783v43.144h18.381v5.518H17.372z"/>
		<path d="M66.318,72.769l22.137,50.589h-6.282l-6.315-14.924H56.845l-6.315,14.924h-6.282L66.318,72.769z M66.318,85.565
			l-7.745,17.915h15.489L66.318,85.565z"/>
		<path d="M93.378,123.357V74.696h11.434c3.257,0,5.645,0.183,7.163,0.549c1.518,0.365,2.853,0.991,4.005,1.878
			c1.44,1.13,2.56,2.643,3.357,4.537c0.798,1.895,1.197,3.994,1.197,6.298c0,3.989-1.114,7.02-3.34,9.091
			c-2.227,2.072-5.49,3.108-9.789,3.108h-1.03l18.581,23.2h-7.346l-17.75-23.2h-0.831v23.2H93.378z M99.029,79.582v16.287h4.421
			c4.521,0,7.545-0.582,9.074-1.745c1.529-1.163,2.293-3.196,2.293-6.099c0-3.125-0.787-5.313-2.36-6.565
			c-1.573-1.251-4.576-1.878-9.007-1.878H99.029z"/>
		<path d="M148.818,72.769l22.137,50.589h-6.282l-6.314-14.924h-19.013l-6.315,14.924h-6.282L148.818,72.769z M148.818,85.565
			l-7.744,17.915h15.489L148.818,85.565z"/>
		<path d="M179.739,123.357V80.214h-13.761v-5.518h33.305v5.518h-13.694v43.144H179.739z"/>
		<path d="M251.786,99.127c0,3.479-0.644,6.759-1.93,9.838c-1.286,3.081-3.16,5.817-5.62,8.21c-2.462,2.394-5.295,4.238-8.499,5.534
			c-3.204,1.297-6.524,1.944-9.961,1.944s-6.746-0.647-9.928-1.944c-3.182-1.296-6.004-3.141-8.465-5.534
			c-2.483-2.415-4.373-5.163-5.671-8.243c-1.297-3.079-1.945-6.349-1.945-9.805c0-3.479,0.648-6.765,1.945-9.855
			c1.298-3.091,3.188-5.845,5.671-8.26c2.438-2.371,5.255-4.199,8.448-5.484s6.508-1.928,9.944-1.928
			c3.459,0,6.79,0.643,9.995,1.928c3.203,1.285,6.025,3.113,8.465,5.484c2.46,2.393,4.334,5.135,5.62,8.227
			C251.143,92.329,251.786,95.626,251.786,99.127z M225.776,119.202c2.661,0,5.194-0.503,7.602-1.512
			c2.406-1.008,4.574-2.477,6.504-4.404c1.907-1.905,3.359-4.066,4.357-6.481s1.497-4.975,1.497-7.678
			c0-2.726-0.505-5.318-1.514-7.778c-1.01-2.46-2.456-4.631-4.341-6.515c-1.908-1.905-4.064-3.357-6.471-4.354
			s-4.951-1.495-7.635-1.495c-2.705,0-5.268,0.498-7.685,1.495s-4.558,2.449-6.42,4.354c-1.907,1.928-3.36,4.11-4.358,6.548
			c-0.998,2.438-1.496,5.02-1.496,7.745c0,2.703,0.493,5.251,1.479,7.645c0.987,2.394,2.445,4.565,4.375,6.515
			c1.951,1.95,4.119,3.424,6.504,4.421C220.56,118.704,223.093,119.202,225.776,119.202z"/>
	</g>
	<rect fill="none" width="268" height="134.017"/>
</g>
<g>
	<path d="M17.073,161.566V142.98h3.225c1.414,0,2.433,0.068,3.06,0.203s1.16,0.368,1.6,0.698c0.618,0.466,1.087,1.034,1.409,1.708
		c0.322,0.672,0.482,1.415,0.482,2.228c0,0.99-0.258,1.833-0.774,2.526s-1.227,1.15-2.133,1.371
		c1.193,0.178,2.128,0.656,2.806,1.435s1.016,1.765,1.016,2.958c0,0.871-0.131,1.646-0.394,2.323s-0.66,1.261-1.193,1.752
		c-0.542,0.508-1.193,0.865-1.955,1.073c-0.762,0.207-2.061,0.311-3.897,0.311H17.073z M18.761,151.245h2.107
		c1.549,0,2.643-0.254,3.282-0.762s0.958-1.354,0.958-2.539c0-1.278-0.311-2.179-0.933-2.704s-1.725-0.787-3.307-0.787h-2.107
		V151.245z M18.761,160.106h2.158c1.227,0,2.074-0.051,2.539-0.152s0.859-0.274,1.181-0.521c0.398-0.305,0.715-0.726,0.952-1.264
		c0.237-0.537,0.355-1.11,0.355-1.72c0-0.745-0.131-1.398-0.394-1.962c-0.262-0.563-0.626-0.983-1.092-1.263
		c-0.322-0.187-0.7-0.319-1.136-0.399c-0.436-0.081-1.115-0.121-2.038-0.121h-0.368h-2.158V160.106z"/>
	<path d="M32.79,150.306v5.624c0,1.709,0.243,2.916,0.73,3.618s1.31,1.054,2.469,1.054c1.151,0,1.976-0.355,2.476-1.066
		s0.749-1.912,0.749-3.605v-5.624h1.549v6.424c0,1.752-0.402,3.079-1.206,3.979c-0.804,0.902-1.985,1.353-3.542,1.353
		c-1.566,0-2.755-0.45-3.567-1.353c-0.813-0.9-1.219-2.228-1.219-3.979v-6.424H32.79z"/>
	<path d="M43.644,159.561l1.485-0.851c0.246,0.626,0.601,1.099,1.066,1.415c0.465,0.318,1.037,0.477,1.714,0.477
		c0.66,0,1.185-0.167,1.574-0.502c0.389-0.334,0.584-0.78,0.584-1.339c0-0.863-0.766-1.595-2.298-2.196
		c-0.161-0.059-0.288-0.109-0.381-0.152c-1.185-0.465-2.014-0.945-2.488-1.441c-0.474-0.494-0.711-1.105-0.711-1.834
		c0-0.957,0.338-1.741,1.016-2.355c0.677-0.613,1.553-0.92,2.628-0.92c0.914,0,1.693,0.199,2.336,0.597s1.113,0.965,1.409,1.701
		l-1.435,0.8c-0.178-0.533-0.474-0.939-0.889-1.219s-0.922-0.419-1.523-0.419c-0.542,0-0.988,0.159-1.339,0.476
		c-0.351,0.318-0.527,0.713-0.527,1.188c0,0.465,0.173,0.851,0.521,1.155s1.066,0.64,2.158,1.003
		c1.236,0.432,2.067,0.901,2.495,1.409s0.641,1.21,0.641,2.107c0,1.032-0.368,1.858-1.104,2.476s-1.727,0.927-2.971,0.927
		c-0.957,0-1.779-0.218-2.469-0.653C44.446,160.972,43.949,160.355,43.644,159.561z"/>
	<path d="M54.562,145.913c0-0.33,0.119-0.611,0.355-0.845c0.237-0.232,0.521-0.349,0.851-0.349s0.616,0.116,0.857,0.349
		c0.241,0.233,0.362,0.515,0.362,0.845c0,0.339-0.116,0.622-0.349,0.851s-0.522,0.343-0.87,0.343c-0.338,0-0.624-0.114-0.857-0.343
		S54.562,146.252,54.562,145.913z M54.956,161.566v-11.261h1.612v11.261H54.956z"/>
	<path d="M60.833,161.566v-11.261h1.485v1.739c0.457-0.719,1.018-1.259,1.682-1.619c0.665-0.359,1.428-0.539,2.292-0.539
		c1.278,0,2.272,0.355,2.983,1.066s1.066,1.701,1.066,2.971v7.643h-1.587v-6.944c0-1.126-0.235-1.962-0.705-2.507
		c-0.47-0.547-1.195-0.819-2.177-0.819c-1.193,0-2.071,0.354-2.634,1.06c-0.563,0.707-0.844,1.818-0.844,3.333v5.878H60.833z"/>
	<path d="M84.053,155.98h-8.95c0.042,1.455,0.406,2.598,1.092,3.428s1.604,1.244,2.755,1.244c0.83,0,1.557-0.225,2.184-0.673
		s1.147-1.126,1.562-2.031l1.435,0.787c-0.576,1.143-1.28,1.982-2.114,2.521c-0.833,0.537-1.855,0.806-3.066,0.806
		c-1.65,0-2.985-0.552-4.005-1.657c-1.02-1.104-1.53-2.553-1.53-4.348c0-1.846,0.506-3.334,1.517-4.469s2.334-1.701,3.967-1.701
		c1.557,0,2.806,0.522,3.745,1.568c0.939,1.045,1.409,2.439,1.409,4.183V155.98z M82.2,154.647
		c-0.076-1.032-0.419-1.833-1.028-2.399s-1.435-0.851-2.476-0.851c-0.948,0-1.741,0.296-2.38,0.889s-1.009,1.38-1.111,2.361H82.2z"
		/>
	<path d="M86.021,159.561l1.485-0.851c0.246,0.626,0.601,1.099,1.066,1.415c0.465,0.318,1.037,0.477,1.714,0.477
		c0.66,0,1.185-0.167,1.574-0.502c0.389-0.334,0.584-0.78,0.584-1.339c0-0.863-0.766-1.595-2.298-2.196
		c-0.161-0.059-0.288-0.109-0.381-0.152c-1.185-0.465-2.014-0.945-2.488-1.441c-0.474-0.494-0.711-1.105-0.711-1.834
		c0-0.957,0.338-1.741,1.016-2.355c0.677-0.613,1.553-0.92,2.628-0.92c0.914,0,1.693,0.199,2.336,0.597s1.113,0.965,1.409,1.701
		l-1.435,0.8c-0.178-0.533-0.474-0.939-0.889-1.219s-0.922-0.419-1.523-0.419c-0.542,0-0.988,0.159-1.339,0.476
		c-0.351,0.318-0.527,0.713-0.527,1.188c0,0.465,0.173,0.851,0.521,1.155s1.066,0.64,2.158,1.003
		c1.236,0.432,2.067,0.901,2.495,1.409s0.641,1.21,0.641,2.107c0,1.032-0.368,1.858-1.104,2.476s-1.727,0.927-2.971,0.927
		c-0.957,0-1.779-0.218-2.469-0.653C86.823,160.972,86.326,160.355,86.021,159.561z"/>
	<path d="M95.949,159.561l1.485-0.851c0.246,0.626,0.601,1.099,1.066,1.415c0.465,0.318,1.037,0.477,1.714,0.477
		c0.66,0,1.185-0.167,1.574-0.502c0.389-0.334,0.584-0.78,0.584-1.339c0-0.863-0.766-1.595-2.298-2.196
		c-0.161-0.059-0.288-0.109-0.381-0.152c-1.185-0.465-2.014-0.945-2.488-1.441c-0.474-0.494-0.711-1.105-0.711-1.834
		c0-0.957,0.338-1.741,1.016-2.355c0.677-0.613,1.553-0.92,2.628-0.92c0.914,0,1.693,0.199,2.336,0.597s1.113,0.965,1.409,1.701
		l-1.435,0.8c-0.178-0.533-0.474-0.939-0.889-1.219s-0.922-0.419-1.523-0.419c-0.542,0-0.988,0.159-1.339,0.476
		c-0.351,0.318-0.527,0.713-0.527,1.188c0,0.465,0.173,0.851,0.521,1.155s1.066,0.64,2.158,1.003
		c1.236,0.432,2.067,0.901,2.495,1.409s0.641,1.21,0.641,2.107c0,1.032-0.368,1.858-1.104,2.476s-1.727,0.927-2.971,0.927
		c-0.957,0-1.779-0.218-2.469-0.653C96.75,160.972,96.253,160.355,95.949,159.561z"/>
	<path d="M122.99,161.566v-2.057c-0.373,0.838-0.893,1.473-1.562,1.904s-1.456,0.647-2.361,0.647c-1.617,0-2.918-0.554-3.904-1.663
		s-1.479-2.572-1.479-4.393c0-1.803,0.487-3.273,1.46-4.412c0.973-1.138,2.23-1.707,3.771-1.707c0.957,0,1.779,0.209,2.469,0.629
		c0.69,0.418,1.225,1.034,1.606,1.847v-10.474h1.587v19.678H122.99z M115.423,156.057c0,1.455,0.328,2.577,0.984,3.364
		s1.593,1.181,2.812,1.181c1.176,0,2.103-0.43,2.78-1.289c0.677-0.858,1.016-2.041,1.016-3.548c0-1.38-0.334-2.465-1.003-3.257
		c-0.668-0.791-1.591-1.187-2.768-1.187s-2.107,0.421-2.793,1.263C115.766,153.427,115.423,154.584,115.423,156.057z"/>
	<path d="M138.389,155.98h-8.95c0.042,1.455,0.406,2.598,1.092,3.428s1.604,1.244,2.755,1.244c0.83,0,1.557-0.225,2.184-0.673
		s1.147-1.126,1.562-2.031l1.434,0.787c-0.575,1.143-1.279,1.982-2.113,2.521c-0.833,0.537-1.855,0.806-3.066,0.806
		c-1.65,0-2.985-0.552-4.005-1.657c-1.02-1.104-1.53-2.553-1.53-4.348c0-1.846,0.506-3.334,1.517-4.469s2.334-1.701,3.967-1.701
		c1.557,0,2.806,0.522,3.746,1.568c0.939,1.045,1.408,2.439,1.408,4.183V155.98z M136.535,154.647
		c-0.076-1.032-0.418-1.833-1.028-2.399c-0.609-0.566-1.435-0.851-2.476-0.851c-0.948,0-1.741,0.296-2.38,0.889
		s-1.009,1.38-1.111,2.361H136.535z"/>
	<path d="M139.951,150.306h1.713l3.453,8.531l3.441-8.531h1.738l-5.18,11.984L139.951,150.306z"/>
	<path d="M162.408,155.98h-8.949c0.042,1.455,0.406,2.598,1.092,3.428s1.604,1.244,2.754,1.244c0.83,0,1.558-0.225,2.184-0.673
		c0.627-0.448,1.147-1.126,1.563-2.031l1.434,0.787c-0.575,1.143-1.279,1.982-2.113,2.521c-0.834,0.537-1.855,0.806-3.066,0.806
		c-1.65,0-2.984-0.552-4.005-1.657c-1.021-1.104-1.53-2.553-1.53-4.348c0-1.846,0.506-3.334,1.518-4.469s2.334-1.701,3.967-1.701
		c1.558,0,2.807,0.522,3.746,1.568c0.939,1.045,1.408,2.439,1.408,4.183V155.98z M160.555,154.647
		c-0.076-1.032-0.418-1.833-1.027-2.399s-1.436-0.851-2.477-0.851c-0.947,0-1.74,0.296-2.38,0.889s-1.009,1.38-1.11,2.361H160.555z"
		/>
	<path d="M167.373,161.566h-1.613v-19.678h1.613V161.566z"/>
	<path d="M176.754,162.062c-0.803,0-1.574-0.159-2.311-0.476c-0.736-0.318-1.404-0.773-2.006-1.365
		c-0.566-0.559-0.998-1.201-1.295-1.93c-0.295-0.729-0.443-1.506-0.443-2.336c0-0.82,0.152-1.6,0.457-2.336s0.74-1.389,1.307-1.955
		c0.576-0.576,1.232-1.016,1.969-1.32s1.51-0.457,2.322-0.457c0.83,0,1.619,0.152,2.369,0.457c0.748,0.305,1.414,0.744,1.998,1.32
		s1.031,1.231,1.34,1.968s0.463,1.511,0.463,2.323s-0.152,1.585-0.457,2.316c-0.305,0.732-0.744,1.383-1.32,1.949
		c-0.592,0.592-1.268,1.047-2.023,1.365C178.365,161.902,177.576,162.062,176.754,162.062z M176.805,160.602
		c1.236,0,2.283-0.446,3.143-1.34c0.859-0.893,1.289-1.986,1.289-3.281c0-1.313-0.428-2.412-1.283-3.301
		c-0.854-0.889-1.904-1.333-3.148-1.333c-1.234,0-2.281,0.444-3.135,1.333c-0.855,0.889-1.283,1.988-1.283,3.301
		c0,1.295,0.428,2.389,1.283,3.281C174.523,160.155,175.57,160.602,176.805,160.602z"/>
	<path d="M186.148,167.229v-16.923h1.512v2.107c0.432-0.813,0.994-1.437,1.688-1.872c0.695-0.437,1.473-0.654,2.336-0.654
		c1.584,0,2.859,0.557,3.828,1.67c0.969,1.112,1.453,2.588,1.453,4.424c0,1.846-0.473,3.32-1.422,4.424
		c-0.947,1.105-2.209,1.657-3.783,1.657c-0.904,0-1.705-0.218-2.398-0.653c-0.695-0.437-1.262-1.078-1.701-1.924v7.744H186.148z
		 M195.277,156.006c0-1.455-0.332-2.601-0.998-3.434c-0.664-0.834-1.58-1.251-2.748-1.251c-1.201,0-2.143,0.404-2.824,1.212
		c-0.682,0.809-1.021,1.92-1.021,3.333c0,1.438,0.365,2.588,1.098,3.446c0.732,0.859,1.699,1.289,2.9,1.289
		c1.135,0,2.018-0.404,2.646-1.213C194.961,158.581,195.277,157.453,195.277,156.006z"/>
	<path d="M201.777,161.566h-1.563v-11.261h1.563v1.765c0.371-0.711,0.863-1.252,1.473-1.625s1.311-0.559,2.107-0.559
		c0.82,0,1.521,0.188,2.1,0.564c0.58,0.377,1.027,0.93,1.34,1.657c0.449-0.745,1-1.302,1.65-1.669
		c0.652-0.369,1.41-0.553,2.273-0.553c1.193,0,2.133,0.361,2.818,1.086c0.686,0.723,1.027,1.715,1.027,2.977v7.617h-1.561v-6.995
		c0-1.101-0.227-1.93-0.68-2.488s-1.127-0.838-2.025-0.838c-1.074,0-1.863,0.351-2.367,1.054s-0.756,1.815-0.756,3.339v5.929h-1.549
		v-6.995c0-1.151-0.215-1.993-0.646-2.526s-1.102-0.8-2.006-0.8c-1.102,0-1.908,0.355-2.426,1.066
		c-0.516,0.711-0.773,1.819-0.773,3.326V161.566z"/>
	<path d="M230.404,155.98h-8.949c0.041,1.455,0.406,2.598,1.092,3.428s1.604,1.244,2.754,1.244c0.83,0,1.559-0.225,2.184-0.673
		c0.627-0.448,1.146-1.126,1.563-2.031l1.434,0.787c-0.574,1.143-1.279,1.982-2.113,2.521c-0.834,0.537-1.855,0.806-3.066,0.806
		c-1.65,0-2.984-0.552-4.006-1.657c-1.02-1.104-1.529-2.553-1.529-4.348c0-1.846,0.506-3.334,1.518-4.469s2.334-1.701,3.967-1.701
		c1.559,0,2.807,0.522,3.746,1.568c0.939,1.045,1.408,2.439,1.408,4.183V155.98z M228.551,154.647
		c-0.076-1.032-0.418-1.833-1.027-2.399s-1.436-0.851-2.477-0.851c-0.947,0-1.74,0.296-2.381,0.889
		c-0.639,0.593-1.008,1.38-1.109,2.361H228.551z"/>
	<path d="M233.654,161.566v-11.261h1.486v1.739c0.457-0.719,1.018-1.259,1.682-1.619c0.664-0.359,1.428-0.539,2.291-0.539
		c1.279,0,2.273,0.355,2.984,1.066s1.066,1.701,1.066,2.971v7.643h-1.588v-6.944c0-1.126-0.234-1.962-0.705-2.507
		c-0.469-0.547-1.195-0.819-2.176-0.819c-1.193,0-2.072,0.354-2.635,1.06c-0.563,0.707-0.844,1.818-0.844,3.333v5.878H233.654z"/>
	<path d="M247.531,151.639h-2.07v-1.333h2.07v-4.621h1.535v4.621h2.26v1.333h-2.26v9.928h-1.535V151.639z"/>
</g>
</svg>
